/* XPM */
static char *_79eb5f46e0945e2f519f9221b6f7c39QPVzm6u3JcWrDNa6[] = {
/* columns rows colors chars-per-pixel */
"100 71 176 2 ",
"   c #000056",
".  c #000067",
"X  c #00006C",
"o  c #000172",
"O  c #000C76",
"+  c #00057B",
"@  c #000A7B",
"#  c #001077",
"$  c #00127C",
"%  c #001B79",
"&  c #0B2168",
"*  c #002A7F",
"=  c #0F2C7D",
"-  c #102F7E",
";  c #2F3268",
":  c #2F3A6E",
">  c #32396D",
",  c #263372",
"<  c #333D72",
"1  c #323E7C",
"2  c #32407E",
"3  c #3B4478",
"4  c #37527E",
"5  c #414876",
"6  c #002E80",
"7  c #003483",
"8  c #003B85",
"9  c #003F88",
"0  c #153882",
"q  c #193F84",
"w  c #004285",
"e  c #004886",
"r  c #004688",
"t  c #004A88",
"y  c #1A4C8C",
"u  c #005383",
"i  c #005883",
"p  c #0B5A87",
"a  c #0D5D88",
"s  c #17508B",
"d  c #1D568D",
"f  c #224F8D",
"g  c #2B4888",
"h  c #344382",
"j  c #3B4782",
"k  c #354986",
"l  c #34478A",
"z  c #35498B",
"x  c #3A4F8A",
"c  c #25568D",
"v  c #2C578E",
"b  c #27588F",
"n  c #28588F",
"m  c #375287",
"M  c #34548D",
"N  c #39558E",
"B  c #335A8E",
"V  c #3A5A8C",
"C  c #3A5790",
"Z  c #365A91",
"A  c #3B5C92",
"S  c #006E83",
"D  c #116388",
"F  c #1C788D",
"G  c #3E648E",
"H  c #237D8D",
"J  c #29798E",
"K  c #3D6293",
"L  c #3F6B91",
"P  c #404B83",
"I  c #445687",
"U  c #42538C",
"Y  c #435E93",
"T  c #426594",
"R  c #496696",
"E  c #426C93",
"W  c #496996",
"Q  c #476A9B",
"!  c #4B6C9A",
"~  c #536896",
"^  c #437294",
"/  c #4D7497",
"(  c #467B93",
")  c #4C7899",
"_  c #4F7898",
"`  c #54769B",
"'  c #676E95",
"]  c #686F96",
"[  c #6A759A",
"{  c #73789C",
"}  c #5573A1",
"|  c #5877A2",
" . c #5A79A3",
".. c #6C7DA1",
"X. c #787EA0",
"o. c #25808E",
"O. c #338491",
"+. c #4A8395",
"@. c #4D8B97",
"#. c #4E8C98",
"$. c #518597",
"%. c #548F9A",
"&. c #56919A",
"*. c #5B929D",
"=. c #6D81A2",
"-. c #7285A6",
";. c #7586AB",
":. c #7E89AF",
">. c #7F8BB0",
",. c #7C9CB4",
"<. c #7EA0B6",
"1. c #8796AB",
"2. c #8996AC",
"3. c #8B98AD",
"4. c #979BAE",
"5. c #808CB0",
"6. c #8292B6",
"7. c #8796B8",
"8. c #939FB3",
"9. c #95A1B4",
"0. c #9AA8BE",
"q. c #A2A6B6",
"w. c #A2A6B9",
"e. c #A6A9B9",
"r. c #A8ABB9",
"t. c #B1B2BF",
"y. c #9EAEC5",
"u. c #9EAFC8",
"i. c #9FB0C9",
"p. c #A5AEC6",
"a. c #A7AFC8",
"s. c #A8AFC8",
"d. c #A4B0C7",
"f. c #A9B5C3",
"g. c #ABBBC4",
"h. c #A6B3C9",
"j. c #AAB3CA",
"k. c #B4B6C5",
"l. c #B6BAC7",
"z. c #BABBC6",
"x. c #B4B7C8",
"c. c #BABECB",
"v. c #AEBBD2",
"b. c #B0BDD3",
"n. c #A8C1C7",
"m. c #A9C6CB",
"M. c #B8C3CB",
"N. c #B9C7CD",
"B. c #BAC8CE",
"V. c #B4C1D5",
"C. c #BBC6D3",
"Z. c #C5CAD3",
"A. c #C8D4D7",
"S. c #CFDCDF",
"D. c #D3D4DC",
"F. c #D4D8DF",
"G. c #D5DEEC",
"H. c #DFE3EA",
"J. c #DFE6F0",
"K. c #E0E1ED",
"L. c #E1E4EE",
"P. c #E1E7F1",
"I. c #E2E9F2",
"U. c #E9ECF3",
"Y. c #EBF1F7",
"T. c #EFF3F8",
"R. c #F5F6F7",
"E. c #F2F6FA",
"W. c #F6FBFE",
"Q. c #F6FCFE",
"!. c #F9FAFB",
"~. c #FBFBFC",
"^. c #FCFDFD",
"/. c #FDFDFE",
"(. c #FFFEFE",
"). c #FEFEFF",
/* pixels */
"k h 1 2 2 2 2 2 , 2 2 2 2 2 2 2 1 1 1 1 1 1 1 1 1 1 1 1 , 1 1 1 1 < 3 X 4.c.k.M.N.N.N.N.z.k.t.k.t.k.t.z.t.z.e., > 2 x x M g ~ k.k.l.l.l.l.k.k.k.l.l.k.k.k.k.k.l.x.e.k.k.k.l.k.k.k.k.k.k.k.k.k.k.k.k.k.q.",
"l h 2 2 2 2 2 2 2 2 2 2 , 2 2 2 1 1 1 1 1 1 1 1 1 1 1 1 1 1 < 1 1 h . r.).).).).).).).).).).).).).).).).).).2.& < k M m N 0 [ ).).).).).).).).).).).).).).).).).x.G.).).).).).).(.(.).).).).).(.(.).(.U.",
"k 2 2 2 2 2 2 g 2 2 2 2 1 2 2 2 1 1 1 1 1 1 1 1 1 1 1 , 1 < 1 1 4 X r.).).).).).(.(.(.(.(.(.(.~.(.~.(.(.~.{   3 > x x k P y [ !.).(.(.(.).).).(.(.(.).(.).).).j.  D.).!.(.(.(.(.(.(.(.(.(.(.(.(.(.(.(.K.",
"k 2 2 2 2 2 2 , 2 2 2 2 1 1 1 2 1 1 1 1 1 1 1 1 1 1 1 1 1 < 1 P X r.).).).).).).).).).).(.).(.(.).(.(.W.{   5 : 1 m x x x = ' !.(.(.(.).).).).).(.).).).).).j.o % D.).).(.).).).).).(.).).).).).(.(.(.K.",
"k 2 1 2 2 2 2 2 1 1 h 1 2 2 1 1 1 1 1 1 1 1 1 1 < 1 < 1 1 1 P . r.).).).).).).).).).).).).).).).).).~.,.- G : ; h l l k j = ' !.).(.).).).).).).).).).).).j.o I X D.(.(.).).).).).).).).).).).).(.!.).L.",
"k 1 2 2 1 2 2 2 1 1 1 1 1 1 1 2 1 1 1 1 1 1 1 1 , 1 1 1 2 P . r.).).(.).).).).).).).).).).).).(.).W.,.u +.L L 4 k k h h j 0 ' !.).(.).).).).).).).(.).).l.X P j X D.(.(.).).).).).).).).).).).).).(.).L.",
"h 1 2 2 2 2 1 1 h 1 1 1 1 2 1 1 1 1 1 1 1 1 < 1 1 1 1 2 P X r.).).(.).).).).).).).).).).).).(.).W.,.p / L L E K A V C C C q ' !.).(.).).).).).).).(.).k.o j h j o D.).(.).).).).).).).).).).).).).(.).L.",
"h 1 1 2 2 2 1 2 1 1 1 h 1 1 1 1 1 1 1 1 1 1 1 1 1 1 h P . e.).).(.).).).).).).).).).).).).(.).W.,.p / L L L L V A A A A Y f ..~.).(.).).).).).(.(.).j.X j h 1 j o D.(.(.).).).).).).).).).).).).).(.).K.",
"h 1 1 1 1 1 1 h 1 1 1 1 1 1 1 1 1 1 1 1 1 1 1 1 h 3 4 X r.).).).).).).).).).).).).).).).(.(.W.,.p / L E L Q A A A A A A A f ..!.).(.).).).).).(.).v.6 U x l l x X D.).).).).).).).).).).).).).).).).).L.",
"1 1 h 1 h 1 1 1 1 h 1 h 1 1 1 1 1 1 1 < , 1 2 h h P . r.).).).).).).).).).).).).).).).(.).Q.,.p / E L E L A C A A A A C Y f ..!.).(.).).).).(.).b.8 R A A Y C Y 8 F.).).).).).).).).).).).).).).).).).L.",
"1 1 1 1 1 1 1 1 1 1 1 1 1 1 1 1 1 1 1 1 1 h 2 2 P X r.).).).).).).).).).).).).).).).(.).Q.,.p _ L E L L K A A C C A C A Y f ..!.).).).).).(.).b.7 Y A C A C A Y w F.).).).).).).).).).).).).).).).).).L.",
"h 1 h 1 1 1 1 1 1 1 1 1 1 1 1 1 1 1 1 2 h h 2 P X e.).).).).).).).).).).).).).).).(.).W.<.p / L E E L Q A A A A A A A A Y f ..!.).).).).(.).b.8 Y A A A C A A Y 8 F.).(.).).).).).).).).).).).).).(.).L.",
"1 2 1 1 1 1 1 h 1 1 1 1 1 1 1 1 1 1 h h h 2 5 X r.).).).).).).).).).).).).).).).(.).W.<.a _ E E L L E A A C A C A C A C Y f ..~.).).).).).b.8 Y Y C A A A A C Y w F.).).).).).).).).).).).).).).).(.).P.",
"1 1 1 h h 1 1 1 1 1 1 1 1 1 1 1 h 3 h 2 2 P X r.).).).).).).).).).).).).).).).).).W.,.a / E ^ L E E K A A C A A A A A A Y f ..W.).).).).b.8 Y A A A A C A C A Y w F.).).).).).).).).).).).).).).).(.).P.",
"1 1 1 1 1 1 h 1 1 1 1 1 1 1 h h 2 h 2 2 P X q.).).).).).).).).).).).).).).).(.).W.<.a _ E E E E E K A A A A A A A C A A A f ..~.).).).b.7 Y A C C A A A A A A T w F.).).).).).).).).).).).).).).).(.).P.",
"1 h 1 1 1 1 1 1 1 1 1 1 1 1 h 1 h 2 2 P X q.).).(.).).).).).).).).).).).).(.).W.<.D _ E ^ E L E E A C A A C A C A A A A Y f ..~.).).b.8 Y A A A A A A C A C A Y w F.).).).).).).).).).).).).).).).).).P.",
"1 1 1 h 1 1 1 1 1 1 1 1 h 2 1 h 1 1 P X e.).).).).).).).).).).).).).).).).).^.<.D _ E ^ E E L L K A A A C A A A A A A C Y f ..E.).b.8 Y A A A A A C A A A A C Y w F.).).).).).).).).).).).).).).).(.).I.",
"1 h 1 1 1 1 1 1 1 1 h h 3 h h h h P X q.).).).).).).).).).).).).).).).).).Q.<.D _ L ^ ^ ^ L E Q A A A C A A A C A C A A Y y ..~.V.7 Y A A A C A C C C A A C A Y e F.).).).).).).).).).).).).).).).(.).P.",
"1 1 h 1 1 1 1 1 1 h h 1 h h 1 1 P X e.).).).).).).).).).).).).).).).~.).^.:.u _ ^ ^ E E E L E A A C A C C A A A C C A A A y X.b.9 Y A A A A A A A A A A A A N R * D.).).).).).).).).).).).).).).).(.).P.",
"1 1 1 1 1 1 1 h h 1 h h h 1 1 P X e.).).).).).).).).).).).).).).).).).~.:.O _ ^ E ^ ^ E E E A C A A A A A A C C A A A A A A A y A A C A A A C A A A C A A C R 8 3.!.).).).).).).).).).).).).).).(.).).y.",
"1 1 1 1 1 1 1 h h h h h 2 2 P X q.).).).).).).).).).).).).).).).).).~.:.O I ^ ^ ^ E E L L K A C C A A C A C A A A C C A A A A Y A C A C A A A A A A A A C Y 8 3.).).).).).).).).).).).).).).).).).).y.w ",
"1 1 1 1 h h 1 h 3 h 1 1 2 P X q.).).).).).).).).).).).).).).).).).~.>.# U k E ^ E ^ ^ E Q A A A C A A A A A C A A A A A A C C A A A A A A A A Z A C A A R r 3.).).).).).).).).).).).).).).).).).).y.w W ",
"1 1 1 h h 3 h h h 1 2 2 P X q.).).).).).).).).).).).).).).).).).~.:.O U k k ^ ^ ^ ^ L E A A C A A A A A A A A A A C C A C A A A A C A A A N A A C A K Q t 3.).).).).).).).).).).).).).).).).).).y.w R G ",
"1 1 h h h h h 1 2 2 1 P X e.).).).).).).).).).).).).).).).).).!.>.O U k k m E ^ E E E K C A A C A C A A C A C A A A A A A A A C A A C A A A K L Q A Q t 3.).).).).).).).).).).).).).).).).).).y.w W K K ",
"h 3 h h h 3 h 1 1 1 P o q.).).).).).).).).).).).).).).).).).!.5.O U k k k m ^ E E E E A A C A A A C A C A A A A A C A A A A C A V K K K K K K K L W e 2.(.(.(.).).).).).).).).).).).).).).).y.8 R A K K ",
"h h h h 2 2 1 h h P o q.).).).).).).).).).).).).).).).).).~.5.O U k k k h m ^ E E E A A A A C A A A A A C A C A A A Z Z C A A K L K K K K K K E ! e 2.~.(.(.(.).).).).).).).).).).).).).).y.w W K K K K ",
"1 h 1 h 2 2 2 2 P o q.).).).).).).).).).).).).).).).).).~.:.O U h k k k k V ^ E E K C A A A A A A A A A A C Z A C A A K K Q K K K K K K K K K ! e 2.~.).(.(.).).).).).).).).).).).).).).u.8 W G K K K A ",
"h 1 h 1 1 2 2 P X q.).).).).).).).).).).).).).).).).).~.5.O U k k k k k h V ^ E K C A C C A C A A A C A Z A K K Q K Q K K K K K K K L K Q K ! t 2.).(.(.).).).).).).).).).).).).).).).y.w W K K A K K K ",
"h h 1 1 h 1 P o q.).).).).).).).).).).).).).).).).).~.5.O U k k k k k k h V ^ E A A A A A A A A C A A K K L K L L K K Q L K K K K K K L L W e 2.(.).).).).).).).).).).).).).).(.).).p.8 Q K A K K K K K ",
"l h h 1 2 P o q.).).).).).).).).).).).).).).).).).~.5.O U k k k k k k k h V E A C A C A C A A A A K K Q L Q K Q K K K L K K L K K K K K ! e 2.(.).).).).).).).).).).).).).).(.(.~.u.9 R K K K K K K K K ",
"h l h 1 P o q.).).).).).).).).).).).).).).).).).~.5.+ U h k k k k k k k k G T A A A A K K K K L L K K E K K L K K K K K K Q K K L K L ! e 2.~.).(.).).).).).).).).).).).).).).).i.9 Q K K A K K A K K K ",
"l h l U o q.).).).).).).).).).).).).).).).).).~.5.% I k k k k k l k k k h V A A K K L K E K Q K E K Q K L Q K K K L K K K L K K K K ! t 1.~.(.(.).).).).).).).).).).).).).).).y.9 Q A K K K K A K K K A ",
"h k U O q.).).).).).).).).).).).).).).).).).(.6.6 Y N C C N N N N N N C B L T L K T T K T E K E Q K E K K L K K L K L K K K K L L ! e 2.~.).).).).).).).).).).).).).).).).).i.w Q Q A K A K K K K K K K ",
"l U @ q.).).).).).).).).).).).).).).).).).!.6.* Y m C N N C C V C C A C E ^ A K L K K E T K E K K K E K K L K K K K K K K K K K W e 1.~.).).).).).).).).).).).).).).).).).d.8 W K A A K K K K K K A K K ",
"U @ q.).).).).).).).).).).).).).).).).).!.6.* R N N N C C C N V A C A N +.^ A T G L G G L K T L K L K K K K K K L K K Q K K K ! e 1.(.(.).).).).).).).).).).).).).(.).).p.w W K K K A K K K K K K K A K ",
"+ w.).).).).).).).).).).).).).).).).).).7.8 R U U Y Y Y Y Y T T Y Y Y W &./ T W W W W W Q W ! W W W W Q W ! Q K K K K K K L Q e 1.~.(.(.).).).).).).).).).).).).(.).).d.w R K K K K K K A K K K K A K T ",
"w.).).).).).).).).).).).).).).).).).R.-.X 8 * * 6 6 6 7 * 7 7 * 9 t * 4 o.i w e e e e e - e e e e e e e e e e K K K K K K L d 7.~.).(.).).).).).).).).).).).).).).).a.w R K K K K K K K K A K K K A Q b ",
").).).).).).).).).).).).).).).).).).K.c.Z.Z.Z.Z.Z.Z.Z.Z.Z.Z.Z.Z.Z.B.B.A.A.Z.Z.Z.Z.Z.Z.Z.B.Z.Z.Z.Z.Z.Z.Z.Z.Z.C./ K E K E Q Z ` Q.).(.(.(.).).).).).).).).).).).(.).V.7 Q K K K A K K K K K K K K K Q y ;.",
").).).).).).).).).).).).).).).).).).).).).).).).).).).).(.(.).(.).).).).).).).).).).).).).).).).).).).).).).). .Z L K K E b -.~.).).).).).).).).).).).).).).).(.).y.r Q K K K K K K K K K K K A ! 8 w.J.",
").).).).).).).).).).).).).).).).).).).).).).).).).!.).).(.(.(.(.).).(.).).).).).~.(.).).).(.).).).).(.(.).).E. .v Q K K T n =.!.).(.).).).).).).).).).).).).).).).p.w Q K A K K A K K K A K K R w 9.).I.",
").).).).).).).).).).).).).).).).).).).).).).).).).).).).).).).).).).).).).).).).).).).).).).).).).).).).).).E.| Z E L K T n =.).).(.).).).).).).).).).).).).).(.).y.w T K K K A Q K K K K K W w 9.).).J.",
").).).).).).).).).).).).).).).).).).).).).).).).).).).).).).).).).).).).).).).).).).).).).).).).).).).).).).W.| Z K K K T n =.!.).(.).).).).).).).).).).).).).(.).y.e W A K K K A A K K A ! w 9.).).).I.",
").).).).).).).).).).).).).).).).).).).).).).).).).).).).).).).).).).).).).).).).).).).).).).).).).).).).).).W.` v T K K T c =.~.).(.).).).).).).).).).).).).).(.).y.r T K K K K K K K A W w 9.).).).).I.",
").).).).).).).).).).).).).).).).).).).).).).).).).).).).).).).).).).).).).).).).).).).).).).).).).).).).).).E.| B T K A T c =.!.).(.).).).).).).).).).).).).).(.).p.r R K A K K K K A Q w 9.).).).).).L.",
").).).).).).).).).).).).).).).).).).).).).).).).).).).).).).).).).).).).).).).).).).).).).).).).).).).).).).W.| B T A G R c -.!.).(.).).).).).).).).).).).).).(.).y.r R K K A K K K ! w 8.).).).).).).P.",
").).).).).).).).).).).).).).).).).).).).).).).).).).).).).).).).).).).).).).).).).).).).).).).).).).).).).).E.| B T K K T c { !.).(.).).).).).).).).).).).).).(.).p.r T K K K K A Q w 9.).).).).).).).P.",
").).).).).).).).).).).).).).).).).).).).).).).).).).).).).).).).).).).).).).).).).).).).).).).).).).).).).).E.| v T A K T c =.Q.).(.).).).).).).).).).).).).).(.).y.e R K K K K Q 9 8.).).).).).).).).I.",
").).).).).).).).).).).).).).).).).).).).).).).).).).).).).).).).).).).).).).).).).).).).).).).).).).).).).).E.` B T K G T c =.(.).(.).).).).).).).).).).).).).(.).y.e T A K A Q r 8.).).).).).).).).).I.",
").).).).).).).).).).).).).).).).).).).).).).).).).).).).).).).).).).).).).).).).).).).).).).).).).).).).).).W.| B T K K T c =.!.).(.).).).).).).).).).).).).).(.).y.r R K K W w 9.).).).).).).).).).).L.",
").).).).).~.).).).).).).).).).).).).).).).).).(.).).).).).(.).).).).).).).).).).).).).).).).).).).).).).).).E.` B T V K T c =.!.).(.).).).).).).).).).).).).).(.).d.r T A W w 9.).).).).).).).).).).).I.",
").).).).(.(.!.!.).).).(.~.(.(.(.).).).).).).).(.~.(.(.(.).).).).).).).).).).).).).).).).).).).).).).).).).).W.| B T G K T c =.!.).(.).).).).).).).).).).).).).).).y.e R ! w 4.).).).).).).).).).).).).I.",
"(.).).).).~.~.~.).).).).).).(.(.).).).).).).).).).).(.(.).).).).).).).).).).).).).).).).).).).).).).).).).).E.| B K A K T c =.!.).(.).).).).).).).).).).).).).).).p.w ! w 9.(.).).).).).).).).).).).).P.",
"p.p.d.d.p.p.d.d.s.s.s.h.f.h.h.h.j.h.h.a.j.s.j.j.d.h.j.d.m.m.m.m.m.m.m.n.S.~.~.).).).).).).).).).).).).).).).E.| B T A G T c =.!.).).).).).).).).).).).).).).).).).y.s t 8.).).).).).).).).).).).).).).P.",
"+ + * $ + * + * + + % 6 * 7 * 7 7 7 7 8 8 8 8 8 9 w 8 u o.H H H H H o.4 t.).).).).).).).).).).).).).).).).).E.| B T K K T v =.!.).).).).).).).).(.(.).).(.).).!.).d.o 9.).).(.).(.(.(.(.).).).).(.).).P.",
"U N U U P U U U U U U Y Y Y T Y Y Y Y Y Y R Y T T R Y $.&.%.%.&.&.&.&.o.g.).).).).).).).).).).).).).).).).).W. .B G K K T c =.).).).).).).).).).).).).).).).).).).9.2.).).).).).).).).).).).).).).).).L.",
"z x z z z z l l l l l x N A N N C C A A C A A A V V T @.@.%.@.@.O.@.&.o.g.).).).).).).).).).).).).).).).).).E.` M T V G T v =.U.E.Y.R.E.Y.E.E.E.R.Y.R.E.R.Y.E.R.E.C.U.W.Y.Y.R.E.Y.E.R.Y.T.E.E.T.Y.E.W.G.",
"x k z z z z z z z z l x C C C C Z C A A A A A A A A ( &.#.#.#.#.&.&.&.o.m.^.^.^.).).).).).).).).).).).).).).E.| B E A K K A T ! ! ! ! / ! ! ! ! ! Q ! ! ! ! ! Q !  .! ! ! Q ! ! ! ! ! ! ! ! ! ! ! ! ! ! ",
"z z z z z z z z z l z z C C C C N A A C A Z A K A G #.@.#.#.#.#.@.@.&.o.n.^.).).).).).).).).).).).).).).).).W.| B K G K K G K V V B K V Z Z B A A A Z Z Z Z Z Z A v Z C A A Z A C B Z C Z K Z Z A Z B A ",
"z z z z z z z k l z l l N C C A A A A N A A A A A ^ &.@.#.#.#.#.@.#.&.o.g.).).).).).).).).).).).).).).).).).E. .B T V K K A K K T K K K K A T A A A A K K K K A A K A T A K K K A K A K K K K K Q A K K ",
"z z z x z z z l z z z l M V C A N A A A A A A A G @.#.#.#.#.#.#.#.#.&.o.g.).).).).).).).).).).).).).).).).).E.| B K K K K G K K G K A K A K A A A A A K A A K A K A K A K K A A A K A A A A A A A A A K ",
"z z z k z z g z z z l l z A C A A A A A K A A A L #.#.#.#.#.#.#.#.@.&.o.g.).).).).).).).).).).).).).).).).).W.| B T A K K K K K A A K A A A A A A K A K A K A K K A K A A A K A A K A K A K A K A A K A ",
"z z z z z l l z z l z l z C A A A A A A A A K V @.#.#.#.#.#.#.#.#.@.%.H f.).).).).).).).).).).).).).).).).).E.| B T K G V K K V K A A A K A K A K A K A A K K A A K A A A A A A A A A A A A A A A A K A ",
"z z z z z z l z l z l l z M A A A A A A A K A ^ #.#.#.#.#.#.#.#.#.#.%.H g.).).).).).).).).).).).).).).).).).E.| B G K K K K A A A A K A A A A K K A A A K A K A K A A K A A K A A K A A K A K A K A A A ",
"z z z z l k z z l z z z z z A C A V A A A K A +.#.#.#.#.#.#.#.#.#.@.&.H f.).).).).).).).).).).).).).).).).).E.` B T K K V A A K K A A A A K A K A K A K A K A K A A A A K K A A A K A K A A A A A A A K ",
"z z z k z z l z z z z z z z C ! C A A A K Z K #.#.#.#.#.#.#.#.#.#.#.%.H h.).).).).).).).).).).).).).).).).).W.` B K V A A K K A A K K A A K A K A K A A K A K A K A K A K A A A A K K V K A K A A A A A ",
"z z l z l z k z z z z z z z C C C A Z Q K K +.#.#.#.#.#.#.#.#.#.#.#.%.H f.).).).).).).).).).).).).).).).(.).E.` B T K A A A A A A A A A K A K A K A K A K A A A A A A A A A A K K V A A A A K A A A A A ",
"l l z z l l g z z z z z z l C C A A A A K K #.#.#.#.#.#.#.#.#.#.#.#.%.H f.).).).).).).).).).).).).).).).).).E.| v Y V K K A K A A V K K K A A K A K K A A A A Z A A K A K A A K A K A A A A A A A C A A ",
"k z z l l z z z z z z z z z l Y A A Z Q Z ) #.#.#.#.#.#.%.#.#.#.#.#.*.F f.).).).).).).).).).).).).).).).).).!.| M T K A A A V K K A K A A K A A K A A K A K A K K A K A V K A A A A A K K A A A A A C A ",
"z z z z z z z z z z z z l l l C A A A K K @.#.#.#.#.#.#.#.#.#.#.#.#.&.H f.).~.~.).).).).(.(.).(.).).).).).).E.| M A A A K A V K A A K A K A K A K A A Z A A A A A A A A K A A A A K A A V A A A A A A C ",
"z z z z z z z z z z z z l l l C Q A K A Q @.#.#.#.#.#.#.#.#.#.#.#.#.&.F f.).).~.).).).).).).).).).).).).).).~.| v T A K A A K A K K A K A K K A A A A K K K A K V K A K K A K A A A A A A A A A A A A A ",
"z z z z z z z z z z z l l z l z Z A A A #.#.#.#.#.#.#.#.#.#.#.#.#.#.&.J 0.E.Y.Y.Y.Y.Y.Y.Y.Y.Y.Y.Y.Y.T.Y.U.E.I.} B K A A K A A R K A K A A K A A A A K A A A A A K A A A V K A A A A A C A A C A A A A A "
};
